<?xml version="1.0" encoding="utf-8"?>
<!-- Generator: Adobe Illustrator 16.0.0, SVG Export Plug-In . SVG Version: 6.00 Build 0)  -->
<!DOCTYPE svg PUBLIC "-//W3C//DTD SVG 1.1//EN" "http://www.w3.org/Graphics/SVG/1.1/DTD/svg11.dtd">
<svg version="1.1" id="Layer_1" xmlns="http://www.w3.org/2000/svg" xmlns:xlink="http://www.w3.org/1999/xlink" x="0px" y="0px"
	 width="145.602px" height="319.129px" viewBox="0 0 145.602 319.129" enable-background="new 0 0 145.602 319.129"
	 xml:space="preserve">
<g>
	<g>
		<g>
			<polygon fill="#BEA379" points="-192.878,302.892 -195.97,300.355 -76.912,155.317 -195.97,10.279 -192.878,7.741 
				-71.737,155.317 			"/>
			<path fill="#BEA379" d="M-192.601,305.707l-6.184-5.074l119.286-145.315L-198.785,10.002l6.184-5.076l123.452,150.391
				L-192.601,305.707z M-193.155,10.556l49.907,60.797L-193.155,10.556z"/>
		</g>
		<g>
			<polygon fill="#BEA379" points="-192.394,307.818 -200.896,300.84 -81.44,155.317 -200.896,9.795 -192.394,2.815 
				-67.208,155.317 			"/>
			<path fill="#BEA379" d="M-192.116,310.632l-11.595-9.515l119.684-145.801L-203.711,9.518L-192.117,0l127.496,155.317
				L-192.116,310.632z M-198.082,300.563l5.411,4.44l122.875-149.687L-192.671,5.63l-5.41,4.442l119.229,145.245L-198.082,300.563z"
				/>
		</g>
	</g>
</g>
<g>
	<g>
		<g>
			<polygon fill="#BEA379" points="128.23,311.389 7.096,163.823 126.547,16.249 129.657,18.766 12.256,163.805 131.322,308.852 			
				"/>
			<path fill="#BEA379" d="M127.953,314.204L4.516,163.832L126.251,13.436l6.219,5.033L14.836,163.796l119.301,145.333
				L127.953,314.204z M126.844,19.062L66.371,93.771L126.844,19.062z"/>
		</g>
		<g>
			<polygon fill="#BEA379" points="127.745,316.315 2.58,163.838 126.029,11.327 134.58,18.247 16.771,163.79 136.248,309.337 			
				"/>
			<path fill="#BEA379" d="M127.468,319.129L0,163.847L125.732,8.514l11.66,9.437L19.352,163.781l119.711,145.834L127.468,319.129z
				 M5.16,163.83L128.022,313.5l5.411-4.44L14.191,163.798L131.767,18.543l-5.441-4.404L5.16,163.83z"/>
		</g>
	</g>
</g>
</svg>
