<?xml version="1.0" encoding="utf-8"?>
<!-- Generator: Adobe Illustrator 16.0.0, SVG Export Plug-In . SVG Version: 6.00 Build 0)  -->
<!DOCTYPE svg PUBLIC "-//W3C//DTD SVG 1.1//EN" "http://www.w3.org/Graphics/SVG/1.1/DTD/svg11.dtd">
<svg version="1.1" id="Layer_1" xmlns="http://www.w3.org/2000/svg" xmlns:xlink="http://www.w3.org/1999/xlink" x="0px" y="0px"
	 width="120.1px" height="292.613px" viewBox="0 0 120.1 292.613" enable-background="new 0 0 120.1 292.613" xml:space="preserve">
<g>
	<g>
		<g>
			<polygon fill="#BEA379" points="1.546,293.882 -1.546,291.345 117.513,146.307 -1.546,1.269 1.546,-1.269 122.688,146.307 			"/>
			<path fill="#BEA379" d="M1.823,296.696l-6.184-5.074l119.286-145.315L-4.361,0.992l6.184-5.076l123.452,150.391L1.823,296.696z
				 M1.269,1.546l49.907,60.797L1.269,1.546z"/>
		</g>
		<g>
			<polygon fill="#BEA379" points="2.031,298.808 -6.472,291.83 112.984,146.307 -6.472,0.785 2.03,-6.195 127.216,146.307 			"/>
			<path fill="#BEA379" d="M2.308,301.622l-11.595-9.515l119.684-145.801L-9.287,0.508L2.307-9.01l127.496,155.317L2.308,301.622z
				 M-3.657,291.553l5.411,4.44l122.875-149.687L1.753-3.38l-5.41,4.442l119.229,145.245L-3.657,291.553z"/>
		</g>
	</g>
</g>
<g>
	<g>
		<g>
			<polygon fill="#BEA379" points="258.654,293.882 137.52,146.315 256.972,-1.258 260.081,1.258 142.68,146.298 261.746,291.345 
							"/>
			<path fill="#BEA379" d="M258.377,296.696L134.94,146.324L256.675-4.071l6.219,5.033L145.26,146.289l119.301,145.333
				L258.377,296.696z M257.268,1.555l-60.473,74.709L257.268,1.555z"/>
		</g>
		<g>
			<polygon fill="#BEA379" points="258.169,298.808 133.004,146.331 256.453,-6.181 265.004,0.74 147.196,146.282 266.672,291.83 
							"/>
			<path fill="#BEA379" d="M257.892,301.622L130.424,146.34L256.157-8.993l11.66,9.437l-118.041,145.83l119.711,145.834
				L257.892,301.622z M135.584,146.322l122.862,149.671l5.411-4.44L144.616,146.291L262.191,1.036l-5.441-4.404L135.584,146.322z"/>
		</g>
	</g>
</g>
</svg>
